<mxfile host="app.diagrams.net" modified="2021-06-28T09:32:00.646Z" agent="5.0 (X11)" etag="gHOFeaGiJpA0CEUckgyU" version="14.8.2" type="github">
  <diagram id="CbuBbzCR7n4TyNfNOC3d" name="Page-1">
    <mxGraphModel dx="1355" dy="793" grid="1" gridSize="10" guides="1" tooltips="1" connect="1" arrows="1" fold="1" page="1" pageScale="1" pageWidth="827" pageHeight="1169" math="0" shadow="0">
      <root>
        <mxCell id="0" />
        <mxCell id="1" parent="0" />
        <mxCell id="UahKGlGqAtQHhYIkYV7x-1" value="&lt;div&gt;GUI&lt;/div&gt;&lt;div&gt;&lt;br&gt;&lt;/div&gt;" style="ellipse;whiteSpace=wrap;html=1;fillColor=#d5e8d4;strokeColor=#82b366;" vertex="1" parent="1">
          <mxGeometry x="750" y="530" width="120" height="80" as="geometry" />
        </mxCell>
        <mxCell id="UahKGlGqAtQHhYIkYV7x-2" value="AI" style="ellipse;whiteSpace=wrap;html=1;fillColor=#f8cecc;strokeColor=#b85450;" vertex="1" parent="1">
          <mxGeometry x="120" y="520" width="120" height="80" as="geometry" />
        </mxCell>
        <mxCell id="UahKGlGqAtQHhYIkYV7x-3" value="&lt;div&gt;Server&lt;/div&gt;&lt;div&gt;&lt;br&gt;&lt;/div&gt;" style="ellipse;whiteSpace=wrap;html=1;fillColor=#dae8fc;strokeColor=#6c8ebf;" vertex="1" parent="1">
          <mxGeometry x="390" y="350" width="120" height="80" as="geometry" />
        </mxCell>
        <mxCell id="UahKGlGqAtQHhYIkYV7x-4" value="" style="endArrow=classic;html=1;entryX=0;entryY=1;entryDx=0;entryDy=0;exitX=0.925;exitY=0.175;exitDx=0;exitDy=0;exitPerimeter=0;" edge="1" parent="1" source="UahKGlGqAtQHhYIkYV7x-2" target="UahKGlGqAtQHhYIkYV7x-3">
          <mxGeometry width="50" height="50" relative="1" as="geometry">
            <mxPoint x="-220" y="490" as="sourcePoint" />
            <mxPoint x="-170" y="440" as="targetPoint" />
          </mxGeometry>
        </mxCell>
        <mxCell id="UahKGlGqAtQHhYIkYV7x-9" value="" style="endArrow=classic;html=1;exitX=0.008;exitY=0.688;exitDx=0;exitDy=0;exitPerimeter=0;entryX=0.775;entryY=0.025;entryDx=0;entryDy=0;entryPerimeter=0;" edge="1" parent="1" source="UahKGlGqAtQHhYIkYV7x-3" target="UahKGlGqAtQHhYIkYV7x-2">
          <mxGeometry width="50" height="50" relative="1" as="geometry">
            <mxPoint x="280" y="350" as="sourcePoint" />
            <mxPoint x="330" y="300" as="targetPoint" />
          </mxGeometry>
        </mxCell>
        <mxCell id="UahKGlGqAtQHhYIkYV7x-10" value="&lt;div&gt;Update Game informations&lt;/div&gt;&lt;div&gt;&lt;br&gt;&lt;/div&gt;" style="text;html=1;strokeColor=#6c8ebf;fillColor=#dae8fc;align=center;verticalAlign=middle;whiteSpace=wrap;rounded=0;" vertex="1" parent="1">
          <mxGeometry x="80" y="420" width="190" height="50" as="geometry" />
        </mxCell>
        <mxCell id="UahKGlGqAtQHhYIkYV7x-11" value="&lt;div&gt;Send AI Actions&lt;/div&gt;&lt;div&gt;&lt;br&gt;&lt;/div&gt;" style="text;html=1;strokeColor=#b85450;fillColor=#f8cecc;align=center;verticalAlign=middle;whiteSpace=wrap;rounded=0;" vertex="1" parent="1">
          <mxGeometry x="280" y="520" width="160" height="40" as="geometry" />
        </mxCell>
        <mxCell id="UahKGlGqAtQHhYIkYV7x-12" value="" style="endArrow=classic;html=1;entryX=0.992;entryY=0.675;entryDx=0;entryDy=0;entryPerimeter=0;exitX=0.417;exitY=-0.025;exitDx=0;exitDy=0;exitPerimeter=0;" edge="1" parent="1" source="UahKGlGqAtQHhYIkYV7x-1" target="UahKGlGqAtQHhYIkYV7x-3">
          <mxGeometry width="50" height="50" relative="1" as="geometry">
            <mxPoint x="620" y="510" as="sourcePoint" />
            <mxPoint x="510" y="410" as="targetPoint" />
          </mxGeometry>
        </mxCell>
        <mxCell id="UahKGlGqAtQHhYIkYV7x-13" value="" style="endArrow=classic;html=1;exitX=0.625;exitY=0.988;exitDx=0;exitDy=0;exitPerimeter=0;entryX=0.092;entryY=0.138;entryDx=0;entryDy=0;entryPerimeter=0;" edge="1" parent="1" source="UahKGlGqAtQHhYIkYV7x-3" target="UahKGlGqAtQHhYIkYV7x-1">
          <mxGeometry width="50" height="50" relative="1" as="geometry">
            <mxPoint x="390" y="450" as="sourcePoint" />
            <mxPoint x="440" y="400" as="targetPoint" />
          </mxGeometry>
        </mxCell>
        <mxCell id="UahKGlGqAtQHhYIkYV7x-14" value="Request data update" style="text;html=1;strokeColor=#82b366;fillColor=#d5e8d4;align=center;verticalAlign=middle;whiteSpace=wrap;rounded=0;" vertex="1" parent="1">
          <mxGeometry x="650" y="400" width="160" height="20" as="geometry" />
        </mxCell>
        <mxCell id="UahKGlGqAtQHhYIkYV7x-15" value="&lt;div&gt;Update game informations&lt;/div&gt;&lt;div&gt;&lt;br&gt;&lt;/div&gt;" style="text;html=1;strokeColor=#6c8ebf;fillColor=#dae8fc;align=center;verticalAlign=middle;whiteSpace=wrap;rounded=0;" vertex="1" parent="1">
          <mxGeometry x="510" y="520" width="190" height="50" as="geometry" />
        </mxCell>
      </root>
    </mxGraphModel>
  </diagram>
</mxfile>
